<?xml version="1.0" encoding="utf-8"?>
<!-- Generator: Adobe Illustrator 18.0.0, SVG Export Plug-In . SVG Version: 6.00 Build 0)  -->
<!DOCTYPE svg PUBLIC "-//W3C//DTD SVG 1.1//EN" "http://www.w3.org/Graphics/SVG/1.1/DTD/svg11.dtd">
<svg version="1.1" xmlns="http://www.w3.org/2000/svg" xmlns:xlink="http://www.w3.org/1999/xlink" x="0px" y="0px" width="288.7px"
	 height="70px" viewBox="0 0 288.7 70" enable-background="new 0 0 288.7 70" xml:space="preserve">
<g id="foosball_xA0_Image_1_">
</g>
<g id="Layer_2">
	<g>
		<g>
			<path fill="#FFFFFF" d="M14.3,17.8H5.9V23h7.9v4H5.9v8.1h-5V13.8h13.3V17.8z"/>
		</g>
		<g>
			<path fill="#FFFFFF" d="M41.9,38c-6.3,0-11.3-4.1-11.3-11c0-6.9,5-11,11.3-11s11.3,4.1,11.3,11C53.2,33.9,48.2,38,41.9,38z
				 M41.9,20.2c-3.6,0-6.3,2.6-6.3,6.7c0,4.1,2.7,6.7,6.3,6.7c3.6,0,6.3-2.6,6.3-6.7C48.1,22.8,45.4,20.2,41.9,20.2z"/>
		</g>
		<g>
			<path fill="#FFFFFF" d="M123.1,33.7c-1.5,1.2-3.5,1.8-5.8,1.8c-3.1,0-5.8-1.6-7.6-3.2l2.5-3.7c1.5,1.6,3.9,2.7,5.6,2.7
				c1.6,0,2.8-0.8,2.8-2.2c0-1.5-1.6-2-2.5-2.4c-0.9-0.3-2.5-0.9-3.2-1.2c-0.5-0.2-1.6-0.7-2.5-1.5c-0.9-0.9-1.7-2.1-1.7-4.1
				c0-2,1-3.7,2.2-4.7c1.2-1,3.2-1.7,5.6-1.7s5.3,1.2,6.8,2.6l-2.1,3.5c-1.2-1.2-3.2-2.2-4.8-2.2c-1.6,0-2.8,0.6-2.8,1.9
				c0,1.3,1.2,1.8,2.2,2.2c0.9,0.4,2.5,0.9,3.2,1.2c0.6,0.2,2,0.8,3,1.7c0.9,0.9,1.7,2.2,1.7,4.1C125.6,30.7,124.6,32.5,123.1,33.7z
				"/>
		</g>
		<g>
			<path fill="#FFFFFF" d="M157.9,33.7c-1.4,1-3.3,1.4-5.5,1.4h-8.7V13.8h7.3c2,0,3.8,0.2,5.3,0.9c1.4,0.7,2.7,2.1,2.7,4.5
				s-1.5,4.1-3.1,4.7v0.1c2.7,0.7,4.4,2.4,4.4,5.1C160.3,31.4,159.3,32.8,157.9,33.7z M153,17.9c-0.6-0.4-1.1-0.4-2.2-0.4h-2.1v4.9
				h1.9c1.1,0,1.8-0.1,2.4-0.5c0.6-0.4,1.1-1,1.1-2C154,18.9,153.6,18.3,153,17.9z M154.1,26.5c-0.7-0.5-1.6-0.6-2.7-0.6h-2.8v5.4
				h2.8c1.1,0,1.9-0.1,2.7-0.6c0.7-0.5,1.1-1.2,1.1-2.1C155.2,27.7,154.8,27,154.1,26.5z"/>
		</g>
		<g>
			<path fill="#FFFFFF" d="M197.2,35.1h-5.4l-1.5-4.3h-7.6l-1.5,4.3h-5.2l8-21.4h5.2L197.2,35.1z M189.1,26.9l-2.7-7.7l-2.7,7.7
				H189.1z"/>
		</g>
		<g>
			<path fill="#FFFFFF" d="M226.6,35.1h-12.4V13.8h5V31h7.4V35.1z"/>
		</g>
		<g>
			<path fill="#FFFFFF" d="M256.3,35.1h-12.4V13.8h5V31h7.4V35.1z"/>
		</g>
		<g>
			<path fill="#FFFFFF" d="M286.2,33.7c-1.5,1.2-3.5,1.8-5.8,1.8c-3.1,0-5.8-1.6-7.6-3.2l2.5-3.7c1.5,1.6,3.9,2.7,5.6,2.7
				c1.6,0,2.8-0.8,2.8-2.2c0-1.5-1.6-2-2.5-2.4c-0.9-0.3-2.5-0.9-3.2-1.2c-0.5-0.2-1.6-0.7-2.5-1.5c-0.9-0.9-1.7-2.1-1.7-4.1
				c0-2,1-3.7,2.2-4.7c1.2-1,3.2-1.7,5.6-1.7c2.5,0,5.3,1.2,6.8,2.6l-2.1,3.5c-1.2-1.2-3.2-2.2-4.8-2.2c-1.6,0-2.8,0.6-2.8,1.9
				c0,1.3,1.2,1.8,2.2,2.2c0.9,0.4,2.5,0.9,3.2,1.2c0.6,0.2,2,0.8,3,1.7c0.9,0.9,1.7,2.2,1.7,4.1C288.7,30.7,287.7,32.5,286.2,33.7z
				"/>
		</g>
		<g>
			<path fill="#FFFFFF" d="M4.5,60.3V69h1.9c0.2,0,0.3,0,0.4,0.1c0.1,0.1,0.1,0.2,0.1,0.3c0,0.1,0,0.2-0.1,0.3
				c-0.1,0.1-0.2,0.1-0.4,0.1H1.8c-0.2,0-0.3,0-0.4-0.1c-0.1-0.1-0.1-0.2-0.1-0.3c0-0.1,0-0.2,0.1-0.3C1.5,69,1.7,69,1.8,69h1.9
				v-8.7h-3v2.5c0,0.2,0,0.3-0.1,0.4c-0.1,0.1-0.2,0.1-0.3,0.1c-0.1,0-0.2,0-0.3-0.1C0,63.1,0,63,0,62.8v-3.3h8.2v3.3
				c0,0.2,0,0.3-0.1,0.4c-0.1,0.1-0.2,0.1-0.3,0.1s-0.2,0-0.3-0.1c-0.1-0.1-0.1-0.2-0.1-0.4v-2.5H4.5z"/>
			<path fill="#FFFFFF" d="M21.7,64.8V69h5.6v-2.2c0-0.2,0-0.3,0.1-0.4c0.1-0.1,0.2-0.1,0.3-0.1c0.1,0,0.2,0,0.3,0.1
				c0.1,0.1,0.1,0.2,0.1,0.4v2.9h-8.1c-0.2,0-0.3,0-0.4-0.1c-0.1-0.1-0.1-0.2-0.1-0.3c0-0.1,0-0.2,0.1-0.3c0.1-0.1,0.2-0.1,0.4-0.1
				h1v-8.7h-1c-0.2,0-0.3,0-0.4-0.1c-0.1-0.1-0.1-0.2-0.1-0.3c0-0.1,0-0.2,0.1-0.3c0.1-0.1,0.2-0.1,0.4-0.1h7.7v2.5
				c0,0.2,0,0.3-0.1,0.4c-0.1,0.1-0.2,0.1-0.3,0.1c-0.1,0-0.2,0-0.3-0.1c-0.1-0.1-0.1-0.2-0.1-0.4v-1.8h-5.2v3.8h2.6v-0.8
				c0-0.2,0-0.3,0.1-0.4c0.1-0.1,0.2-0.1,0.3-0.1c0.1,0,0.2,0,0.3,0.1c0.1,0.1,0.1,0.2,0.1,0.4v2.4c0,0.2,0,0.3-0.1,0.4
				c-0.1,0.1-0.2,0.1-0.3,0.1c-0.1,0-0.2,0-0.3-0.1c-0.1-0.1-0.1-0.2-0.1-0.4v-0.8H21.7z"/>
			<path fill="#FFFFFF" d="M46.4,66.3h-4.8l-1,2.7H42c0.2,0,0.3,0,0.4,0.1c0.1,0.1,0.1,0.2,0.1,0.3c0,0.1,0,0.2-0.1,0.3
				c-0.1,0.1-0.2,0.1-0.4,0.1h-2.7c-0.2,0-0.3,0-0.4-0.1c-0.1-0.1-0.1-0.2-0.1-0.3c0-0.1,0-0.2,0.1-0.3C39,69,39.1,69,39.3,69h0.6
				l3.2-8.7h-2.2c-0.2,0-0.3,0-0.4-0.1c-0.1-0.1-0.1-0.2-0.1-0.3c0-0.1,0-0.2,0.1-0.3c0.1-0.1,0.2-0.1,0.4-0.1h3.7l3.6,9.4h0.6
				c0.2,0,0.3,0,0.4,0.1c0.1,0.1,0.1,0.2,0.1,0.3c0,0.1,0,0.2-0.1,0.3c-0.1,0.1-0.2,0.1-0.4,0.1H46c-0.2,0-0.3,0-0.4-0.1
				c-0.1-0.1-0.1-0.2-0.1-0.3c0-0.1,0-0.2,0.1-0.3C45.7,69,45.8,69,46,69h1.4L46.4,66.3z M46.1,65.6l-2-5.3h-0.3l-2,5.3H46.1z"/>
			<path fill="#FFFFFF" d="M64.4,66.7h-0.8l-2.8-6.4h-0.1V69H62c0.2,0,0.3,0,0.4,0.1c0.1,0.1,0.1,0.2,0.1,0.3c0,0.1,0,0.2-0.1,0.3
				c-0.1,0.1-0.2,0.1-0.4,0.1h-2.7c-0.2,0-0.3,0-0.4-0.1c-0.1-0.1-0.1-0.2-0.1-0.3c0-0.1,0-0.2,0.1-0.3C59,69,59.1,69,59.3,69h0.6
				v-8.7h-0.5c-0.2,0-0.3,0-0.4-0.1c-0.1-0.1-0.1-0.2-0.1-0.3c0-0.1,0-0.2,0.1-0.3c0.1-0.1,0.2-0.1,0.4-0.1h1.8l2.8,6.3l2.7-6.3h1.8
				c0.2,0,0.3,0,0.4,0.1c0.1,0.1,0.1,0.2,0.1,0.3c0,0.1,0,0.2-0.1,0.3c-0.1,0.1-0.2,0.1-0.4,0.1H68V69h0.6c0.2,0,0.3,0,0.4,0.1
				c0.1,0.1,0.1,0.2,0.1,0.3c0,0.1,0,0.2-0.1,0.3c-0.1,0.1-0.2,0.1-0.4,0.1H66c-0.2,0-0.3,0-0.4-0.1c-0.1-0.1-0.1-0.2-0.1-0.3
				c0-0.1,0-0.2,0.1-0.3C65.6,69,65.8,69,66,69h1.3v-8.7h-0.2L64.4,66.7z"/>
			<path fill="#FFFFFF" d="M101.4,65.2V69h1.3c0.2,0,0.3,0,0.4,0.1c0.1,0.1,0.1,0.2,0.1,0.3c0,0.1,0,0.2-0.1,0.3
				c-0.1,0.1-0.2,0.1-0.4,0.1h-3.1c-0.2,0-0.3,0-0.4-0.1c-0.1-0.1-0.1-0.2-0.1-0.3c0-0.1,0-0.2,0.1-0.3c0.1-0.1,0.2-0.1,0.4-0.1h1
				v-8.7h-1c-0.2,0-0.3,0-0.4-0.1c-0.1-0.1-0.1-0.2-0.1-0.3c0-0.1,0-0.2,0.1-0.3c0.1-0.1,0.2-0.1,0.4-0.1h4.4c0.9,0,1.7,0.3,2.3,0.9
				c0.6,0.6,0.9,1.2,0.9,2c0,0.5-0.2,1-0.6,1.5c-0.4,0.5-1,0.8-1.9,1.2c0.5,0.4,1,0.8,1.3,1.2c0.4,0.5,1,1.4,1.8,2.8h0.6
				c0.2,0,0.3,0,0.4,0.1c0.1,0.1,0.1,0.2,0.1,0.3c0,0.1,0,0.2-0.1,0.3c-0.1,0.1-0.2,0.1-0.4,0.1h-1c-0.9-1.6-1.6-2.7-2.1-3.3
				c-0.5-0.6-1.1-1-1.7-1.3H101.4z M101.4,64.4h2c0.6,0,1.2-0.1,1.7-0.3c0.5-0.2,0.9-0.5,1.1-0.8c0.2-0.3,0.4-0.6,0.4-1
				c0-0.5-0.2-1-0.7-1.4c-0.5-0.4-1.1-0.7-1.8-0.7h-2.7V64.4z"/>
			<path fill="#FFFFFF" d="M126.1,66.3h-4.8l-1,2.7h1.4c0.2,0,0.3,0,0.4,0.1c0.1,0.1,0.1,0.2,0.1,0.3c0,0.1,0,0.2-0.1,0.3
				c-0.1,0.1-0.2,0.1-0.4,0.1H119c-0.2,0-0.3,0-0.4-0.1c-0.1-0.1-0.1-0.2-0.1-0.3c0-0.1,0-0.2,0.1-0.3c0.1-0.1,0.2-0.1,0.4-0.1h0.6
				l3.2-8.7h-2.2c-0.2,0-0.3,0-0.4-0.1c-0.1-0.1-0.1-0.2-0.1-0.3c0-0.1,0-0.2,0.1-0.3c0.1-0.1,0.2-0.1,0.4-0.1h3.7l3.6,9.4h0.6
				c0.2,0,0.3,0,0.4,0.1c0.1,0.1,0.1,0.2,0.1,0.3c0,0.1,0,0.2-0.1,0.3c-0.1,0.1-0.2,0.1-0.4,0.1h-2.7c-0.2,0-0.3,0-0.4-0.1
				c-0.1-0.1-0.1-0.2-0.1-0.3c0-0.1,0-0.2,0.1-0.3c0.1-0.1,0.2-0.1,0.4-0.1h1.4L126.1,66.3z M125.8,65.6l-2-5.3h-0.3l-2,5.3H125.8z"
				/>
			<path fill="#FFFFFF" d="M147.2,69.7h-0.9l-5.4-9.1V69h1.3c0.2,0,0.3,0,0.4,0.1c0.1,0.1,0.1,0.2,0.1,0.3c0,0.1,0,0.2-0.1,0.3
				c-0.1,0.1-0.2,0.1-0.4,0.1h-2.7c-0.2,0-0.3,0-0.4-0.1c-0.1-0.1-0.1-0.2-0.1-0.3c0-0.1,0-0.2,0.1-0.3c0.1-0.1,0.2-0.1,0.4-0.1h0.6
				v-8.7h-1c-0.2,0-0.3,0-0.4-0.1c-0.1-0.1-0.1-0.2-0.1-0.3c0-0.1,0-0.2,0.1-0.3c0.1-0.1,0.2-0.1,0.4-0.1h1.9l5.4,9.1v-8.4h-1.3
				c-0.2,0-0.3,0-0.4-0.1c-0.1-0.1-0.1-0.2-0.1-0.3c0-0.1,0-0.2,0.1-0.3c0.1-0.1,0.2-0.1,0.4-0.1h2.7c0.2,0,0.3,0,0.4,0.1
				c0.1,0.1,0.1,0.2,0.1,0.3c0,0.1,0,0.2-0.1,0.3c-0.1,0.1-0.2,0.1-0.4,0.1h-0.6V69.7z"/>
			<path fill="#FFFFFF" d="M160.7,69v-8.7h-0.6c-0.2,0-0.3,0-0.4-0.1c-0.1-0.1-0.1-0.2-0.1-0.3c0-0.1,0-0.2,0.1-0.3
				c0.1-0.1,0.2-0.1,0.4-0.1h3.9c0.6,0,1.2,0.1,1.7,0.4c0.5,0.3,0.9,0.5,1.2,0.9c0.5,0.6,0.8,1.1,1,1.7c0.2,0.4,0.3,1,0.3,1.6v1
				c0,0.7-0.2,1.5-0.5,2.2c-0.3,0.7-0.9,1.3-1.7,1.8c-0.6,0.4-1.2,0.6-2,0.6h-3.9c-0.2,0-0.3,0-0.4-0.1c-0.1-0.1-0.1-0.2-0.1-0.3
				c0-0.1,0-0.2,0.1-0.3c0.1-0.1,0.2-0.1,0.4-0.1H160.7z M161.5,69h2.7c0.6,0,1.2-0.2,1.7-0.6c0.5-0.4,0.9-0.9,1.2-1.4
				c0.3-0.6,0.4-1.1,0.4-1.7V64c0-0.5-0.1-0.9-0.2-1.2c-0.2-0.5-0.5-1-0.9-1.5c-0.2-0.3-0.5-0.5-0.9-0.7c-0.4-0.2-0.8-0.3-1.3-0.3
				h-2.7V69z"/>
			<path fill="#FFFFFF" d="M188,64.7c0,1-0.2,1.9-0.6,2.7c-0.4,0.8-0.9,1.5-1.6,1.9c-0.7,0.5-1.4,0.7-2.2,0.7
				c-1.2,0-2.2-0.5-3.1-1.5c-0.9-1-1.3-2.3-1.3-3.8c0-1.6,0.4-2.9,1.3-3.9c0.9-1,1.9-1.5,3.1-1.5c0.8,0,1.5,0.2,2.2,0.7
				c0.7,0.5,1.2,1.1,1.6,1.9C187.8,62.8,188,63.7,188,64.7z M187.2,64.7c0-1.2-0.3-2.3-1-3.2c-0.7-0.9-1.6-1.4-2.7-1.4
				c-1,0-1.9,0.5-2.6,1.4c-0.7,0.9-1.1,2-1.1,3.3c0,1.4,0.4,2.5,1.1,3.3c0.8,0.9,1.6,1.3,2.6,1.3c1.1,0,2-0.5,2.7-1.4
				C186.9,66.9,187.2,65.8,187.2,64.7z"/>
			<path fill="#FFFFFF" d="M203.9,66.7h-0.8l-2.8-6.4h-0.1V69h1.3c0.2,0,0.3,0,0.4,0.1c0.1,0.1,0.1,0.2,0.1,0.3c0,0.1,0,0.2-0.1,0.3
				c-0.1,0.1-0.2,0.1-0.4,0.1h-2.7c-0.2,0-0.3,0-0.4-0.1c-0.1-0.1-0.1-0.2-0.1-0.3c0-0.1,0-0.2,0.1-0.3c0.1-0.1,0.2-0.1,0.4-0.1h0.6
				v-8.7H199c-0.2,0-0.3,0-0.4-0.1c-0.1-0.1-0.1-0.2-0.1-0.3c0-0.1,0-0.2,0.1-0.3c0.1-0.1,0.2-0.1,0.4-0.1h1.8l2.8,6.3l2.7-6.3h1.8
				c0.2,0,0.3,0,0.4,0.1c0.1,0.1,0.1,0.2,0.1,0.3c0,0.1,0,0.2-0.1,0.3c-0.1,0.1-0.2,0.1-0.4,0.1h-0.5V69h0.6c0.2,0,0.3,0,0.4,0.1
				c0.1,0.1,0.1,0.2,0.1,0.3c0,0.1,0,0.2-0.1,0.3c-0.1,0.1-0.2,0.1-0.4,0.1h-2.7c-0.2,0-0.3,0-0.4-0.1c-0.1-0.1-0.1-0.2-0.1-0.3
				c0-0.1,0-0.2,0.1-0.3c0.1-0.1,0.2-0.1,0.4-0.1h1.3v-8.7h-0.2L203.9,66.7z"/>
			<path fill="#FFFFFF" d="M223.8,60.3V69h2.5c0.2,0,0.3,0,0.4,0.1c0.1,0.1,0.1,0.2,0.1,0.3c0,0.1,0,0.2-0.1,0.3
				c-0.1,0.1-0.2,0.1-0.4,0.1h-5.7c-0.2,0-0.3,0-0.4-0.1c-0.1-0.1-0.1-0.2-0.1-0.3c0-0.1,0-0.2,0.1-0.3c0.1-0.1,0.2-0.1,0.4-0.1h2.5
				v-8.7h-2.5c-0.2,0-0.3,0-0.4-0.1c-0.1-0.1-0.1-0.2-0.1-0.3c0-0.1,0-0.2,0.1-0.3c0.1-0.1,0.2-0.1,0.4-0.1h5.7c0.2,0,0.3,0,0.4,0.1
				c0.1,0.1,0.1,0.2,0.1,0.3c0,0.1,0,0.2-0.1,0.3c-0.1,0.1-0.2,0.1-0.4,0.1H223.8z"/>
			<path fill="#FFFFFF" d="M246.9,69.7h-7v-1.1l5.9-8.3v-0.1h-4.9v2.1c0,0.2,0,0.3-0.1,0.4c-0.1,0.1-0.2,0.1-0.3,0.1
				c-0.1,0-0.2,0-0.3-0.1c-0.1-0.1-0.1-0.2-0.1-0.4v-2.9h6.3v1l-5.9,8.3V69h5.6v-2.5c0-0.2,0-0.3,0.1-0.4c0.1-0.1,0.2-0.1,0.3-0.1
				c0.1,0,0.2,0,0.3,0.1c0.1,0.1,0.1,0.2,0.1,0.4V69.7z"/>
			<path fill="#FFFFFF" d="M260.9,64.8V69h5.6v-2.2c0-0.2,0-0.3,0.1-0.4c0.1-0.1,0.2-0.1,0.3-0.1c0.1,0,0.2,0,0.3,0.1
				c0.1,0.1,0.1,0.2,0.1,0.4v2.9h-8.1c-0.2,0-0.3,0-0.4-0.1c-0.1-0.1-0.1-0.2-0.1-0.3c0-0.1,0-0.2,0.1-0.3c0.1-0.1,0.2-0.1,0.4-0.1
				h1v-8.7h-1c-0.2,0-0.3,0-0.4-0.1c-0.1-0.1-0.1-0.2-0.1-0.3c0-0.1,0-0.2,0.1-0.3c0.1-0.1,0.2-0.1,0.4-0.1h7.7v2.5
				c0,0.2,0,0.3-0.1,0.4c-0.1,0.1-0.2,0.1-0.3,0.1c-0.1,0-0.2,0-0.3-0.1c-0.1-0.1-0.1-0.2-0.1-0.4v-1.8h-5.2v3.8h2.6v-0.8
				c0-0.2,0-0.3,0.1-0.4c0.1-0.1,0.2-0.1,0.3-0.1c0.1,0,0.2,0,0.3,0.1c0.1,0.1,0.1,0.2,0.1,0.4v2.4c0,0.2,0,0.3-0.1,0.4
				c-0.1,0.1-0.2,0.1-0.3,0.1c-0.1,0-0.2,0-0.3-0.1c-0.1-0.1-0.1-0.2-0.1-0.4v-0.8H260.9z"/>
			<path fill="#FFFFFF" d="M280.8,65.2V69h1.3c0.2,0,0.3,0,0.4,0.1c0.1,0.1,0.1,0.2,0.1,0.3c0,0.1,0,0.2-0.1,0.3
				c-0.1,0.1-0.2,0.1-0.4,0.1h-3.1c-0.2,0-0.3,0-0.4-0.1c-0.1-0.1-0.1-0.2-0.1-0.3c0-0.1,0-0.2,0.1-0.3c0.1-0.1,0.2-0.1,0.4-0.1h1
				v-8.7h-1c-0.2,0-0.3,0-0.4-0.1c-0.1-0.1-0.1-0.2-0.1-0.3c0-0.1,0-0.2,0.1-0.3c0.1-0.1,0.2-0.1,0.4-0.1h4.4c0.9,0,1.7,0.3,2.3,0.9
				c0.6,0.6,0.9,1.2,0.9,2c0,0.5-0.2,1-0.6,1.5c-0.4,0.5-1,0.8-1.9,1.2c0.5,0.4,1,0.8,1.3,1.2c0.4,0.5,1,1.4,1.8,2.8h0.6
				c0.2,0,0.3,0,0.4,0.1c0.1,0.1,0.1,0.2,0.1,0.3c0,0.1,0,0.2-0.1,0.3c-0.1,0.1-0.2,0.1-0.4,0.1h-1c-0.9-1.6-1.6-2.7-2.1-3.3
				c-0.5-0.6-1.1-1-1.7-1.3H280.8z M280.8,64.4h2c0.6,0,1.2-0.1,1.7-0.3c0.5-0.2,0.9-0.5,1.1-0.8c0.2-0.3,0.4-0.6,0.4-1
				c0-0.5-0.2-1-0.7-1.4c-0.5-0.4-1.1-0.7-1.8-0.7h-2.7V64.4z"/>
		</g>
		<g>
			<path fill="#FFFFFF" d="M78.8,22.1c0.5-1,1.2-1.9,2.1-2.5L59.8,0l-2,2C57.8,2,76.7,20,78.8,22.1z"/>
		</g>
		<g>
			<path fill="#FFFFFF" d="M88.8,14.9c-1.5-0.6-3-0.9-3-0.9L70.2,1.6l-1.6,1.7c0,0,15.7,14.3,16.4,15.2c3.2,0.3,5.5,2.8,5.5,6.6
				c0,4-2.6,6.5-6,6.6v0c-3.1,0-5.5-2-6.1-5.2c0,0,0,0,0,0C77.4,26,60.2,9.5,60.2,9.5l-1.6,1.8c0,0,13.4,13.9,14.5,15
				c0.6,6.2,5.3,9.8,11.3,9.8c6.3,0,11.3-4.1,11.3-11C95.7,19.9,91.6,15.9,88.8,14.9z"/>
		</g>
	</g>
</g>
</svg>
