<?xml version="1.0" encoding="utf-8"?>
<!-- Generator: Adobe Illustrator 18.0.0, SVG Export Plug-In . SVG Version: 6.00 Build 0)  -->
<!DOCTYPE svg PUBLIC "-//W3C//DTD SVG 1.1//EN" "http://www.w3.org/Graphics/SVG/1.1/DTD/svg11.dtd">
<svg version="1.1" id="Layer_1" xmlns="http://www.w3.org/2000/svg" xmlns:xlink="http://www.w3.org/1999/xlink" x="0px" y="0px"
	 width="350px" height="13px" viewBox="-4.1 -0.8 350 13" enable-background="new -4.1 -0.8 350 13" xml:space="preserve">
<g id="foosball_xA0_Image_1_">
</g>
<g id="Layer_2">
	<g>
		<path fill="#7F7F7F" d="M5.8,5.7C5.1,6.3,4.2,6.5,3.1,6.5H1.6v4.7H0v-11h3.1c1.1,0,2,0.2,2.7,0.8s1.1,1.3,1.1,2.4S6.5,5.1,5.8,5.7
			z M4.6,1.9C4.2,1.6,3.7,1.4,3,1.4H1.6v3.8H3c0.7,0,1.2-0.1,1.6-0.4C5,4.5,5.2,4,5.2,3.3S5,2.1,4.6,1.9z"/>
		<path fill="#7F7F7F" d="M14.8,11.2h-1.6v-11h1.6V11.2z"/>
		<path fill="#7F7F7F" d="M31.1,9.8c-0.7,0.8-1.9,1.6-4,1.6c-3.2,0-5.7-2.3-5.7-5.7S23.9,0,27.1,0c2.1,0,3.3,0.9,3.9,1.5l-0.7,1.2
			c-0.4-0.5-1.7-1.3-3.2-1.3c-2.4,0-4.1,1.7-4.1,4.3s1.7,4.3,4.1,4.3c1.5,0,2.6-0.6,3.3-1.3L31.1,9.8z"/>
		<path fill="#7F7F7F" d="M45.8,11.2h-1.9l-3.7-5.5l-1.1,1.2v4.4h-1.6v-11h1.6V5l4.5-4.7h1.9l-4.2,4.4L45.8,11.2z"/>
		<path fill="#7F7F7F" d="M68.7,11.2H67l-1.1-2.9h-4.7L60,11.2h-1.6l4.5-11.1h1.4L68.7,11.2z M65.4,7l-1.9-5l-1.9,5H65.4z"/>
		<path fill="#7F7F7F" d="M92.1,11.2h-1.5l-6.4-8.8c0,0,0,1.5,0,2.9v5.9h-1.5v-11h1.6l6.3,8.7c0,0,0-1.4,0-2.8V0.2h1.5V11.2z"/>
		<path fill="#7F7F7F" d="M107.7,6.7c0,1.4-0.1,2.5-0.9,3.4c-0.8,0.9-1.9,1.3-3.3,1.3c-1.5,0-2.6-0.5-3.3-1.3
			c-0.8-0.9-0.9-2-0.9-3.4V0.2h1.6v6.4c0,0.9,0,1.8,0.5,2.5c0.4,0.6,1.2,1,2.1,1c1,0,1.7-0.4,2.1-1c0.5-0.7,0.5-1.6,0.5-2.5V0.2h1.6
			L107.7,6.7L107.7,6.7z"/>
		<path fill="#7F7F7F" d="M126.6,11.2h-1.5l-0.7-8.7l0,0l-3.4,8.8h-1l-3.4-8.8l0,0l-0.7,8.7h-1.5l1-11h1.9l3.2,8.5l0,0l3.2-8.5h1.9
			L126.6,11.2z"/>
		<path fill="#7F7F7F" d="M139.7,10.5c-0.7,0.5-1.6,0.7-2.8,0.7h-3.6v-11h3c1,0,1.9,0.1,2.6,0.5c0.7,0.4,1.2,1.1,1.2,2.2
			c0,1.2-0.8,2.1-1.7,2.4l0,0c1.5,0.3,2.4,1.2,2.4,2.7C140.9,9.2,140.4,9.9,139.7,10.5z M137.8,1.7c-0.4-0.2-0.8-0.3-1.5-0.3h-1.4
			v3.5h1.3c0.8,0,1.3-0.1,1.6-0.3c0.4-0.3,0.7-0.7,0.7-1.5C138.6,2.3,138.2,1.9,137.8,1.7z M138.5,6.5c-0.5-0.4-1.2-0.4-1.9-0.4
			h-1.7V10h1.7c0.7,0,1.4,0,1.9-0.4s0.8-0.8,0.8-1.6C139.3,7.3,139,6.9,138.5,6.5z"/>
		<path fill="#7F7F7F" d="M154.1,11.2h-6.6v-11h6.5v1.3h-4.9v3.3h4.6v1.3h-4.6v3.8h5V11.2z"/>
		<path fill="#7F7F7F" d="M168.3,11.2h-1.9l-2.9-4.8h-1.2v4.8h-1.6v-11h3.1c1.1,0,2,0.3,2.7,0.8s1.1,1.3,1.1,2.3
			c0,1.9-1.3,2.8-2.5,3L168.3,11.2z M165.4,1.8c-0.5-0.4-1.1-0.4-1.9-0.4h-1.1v3.7h1.1c0.8,0,1.4,0,1.9-0.4s0.7-0.8,0.7-1.5
			C166.1,2.6,165.9,2.2,165.4,1.8z"/>
		<path fill="#7F7F7F" d="M191.4,11.2h-1.7l-1.1-2.9h-4.7l-1.1,2.9H181l4.5-11.1h1.4L191.4,11.2z M188.1,7l-1.9-5l-1.9,5H188.1z"/>
		<path fill="#7F7F7F" d="M206.8,11.2h-1.5l-6.4-8.8c0,0,0,1.5,0,2.9v5.9h-1.5v-11h1.6l6.3,8.7c0,0,0-1.4,0-2.8V0.2h1.5L206.8,11.2
			L206.8,11.2z"/>
		<path fill="#7F7F7F" d="M221.5,9.8c-0.8,0.7-2.2,1.4-4.1,1.4h-3.3v-11h3.3c1.9,0,3.3,0.7,4.1,1.4s1.7,2,1.7,4.1S222.3,9,221.5,9.8
			z M220.4,2.5c-0.6-0.6-1.6-1-2.9-1h-1.8v8.4h1.8c1.3,0,2.3-0.4,2.9-1s1.3-1.6,1.3-3.2S221,3.1,220.4,2.5z"/>
		<path fill="#7F7F7F" d="M243.4,10.5c-0.7,0.6-1.6,0.9-2.7,0.9c-1.9,0-3-1.2-3.6-1.9l0.9-1c0.6,0.8,1.6,1.6,2.8,1.6
			s2.2-0.7,2.2-1.9s-1.2-1.6-1.8-1.8c-0.6-0.2-1.3-0.5-1.8-0.7c-0.2-0.1-0.7-0.4-1.1-0.8c-0.4-0.4-0.7-1-0.7-1.9s0.4-1.6,1-2.1
			s1.5-0.8,2.5-0.8c1.8,0,2.9,1.1,3.2,1.4l-0.8,1.1c-0.5-0.6-1.3-1.2-2.4-1.2c-1.1,0-1.9,0.5-1.9,1.5s0.8,1.4,1.4,1.7l2,0.8
			c0.2,0.1,0.9,0.5,1.2,0.9c0.4,0.4,0.7,1,0.7,1.9C244.6,9.1,244.2,9.9,243.4,10.5z"/>
		<path fill="#7F7F7F" d="M260.2,11.2h-1.6V6.1h-5.9v5.2h-1.6v-11h1.6v4.6h5.9V0.2h1.6V11.2z"/>
		<path fill="#7F7F7F" d="M276.6,11.2h-1.7l-1.1-2.9H269l-1.1,2.9h-1.6l4.5-11.1h1.4L276.6,11.2z M273.3,7l-1.9-5l-1.9,5H273.3z"/>
		<path fill="#7F7F7F" d="M290.8,11.2H289l-3.7-5.5l-1.1,1.2v4.4h-1.6v-11h1.6V5l4.5-4.7h1.9l-4.2,4.4L290.8,11.2z"/>
		<path fill="#7F7F7F" d="M303.3,11.2h-6.6v-11h6.5v1.3h-4.9v3.3h4.6v1.3h-4.6v3.8h5V11.2z"/>
		<path fill="#7F7F7F" d="M319.5,11.2h-1.6v-11h1.6V11.2z"/>
		<path fill="#7F7F7F" d="M333.4,1.5h-3.1v9.7h-1.6V1.5h-3.1V0.2h7.8L333.4,1.5L333.4,1.5z"/>
		<path fill="#7F7F7F" d="M340.7,11.4c-0.6,0-1.1-0.4-1.1-1s0.4-1,1.1-1c0.6,0,1.1,0.4,1.1,1C341.8,11,341.4,11.4,340.7,11.4z
			 M341.5,0.2l-0.1,8.1h-1.3L340,0.2C340,0.2,341.5,0.2,341.5,0.2z"/>
	</g>
</g>
</svg>
