<?xml version="1.0" encoding="utf-8"?>
<!-- Generator: Adobe Illustrator 18.0.0, SVG Export Plug-In . SVG Version: 6.00 Build 0)  -->
<!DOCTYPE svg PUBLIC "-//W3C//DTD SVG 1.1//EN" "http://www.w3.org/Graphics/SVG/1.1/DTD/svg11.dtd">
<svg version="1.1" id="Layer_1" xmlns="http://www.w3.org/2000/svg" xmlns:xlink="http://www.w3.org/1999/xlink" x="0px" y="0px"
	 width="420px" height="18px" viewBox="-71.8 -2.5 420 18" enable-background="new -71.8 -2.5 420 18" xml:space="preserve">
<g id="foosball_xA0_Image_1_">
</g>
<path fill="#7F7F7F" d="M3.8,5.7C3.1,6.3,2.2,6.5,1.1,6.5h-1.5v4.7H-2v-11h3.1c1.1,0,2,0.2,2.7,0.8s1.1,1.3,1.1,2.4S4.5,5.1,3.8,5.7
	z M2.6,1.9C2.2,1.6,1.7,1.4,1,1.4h-1.4v3.8H1c0.7,0,1.2-0.1,1.6-0.4C3,4.5,3.2,4,3.2,3.3S3,2.1,2.6,1.9z"/>
<path fill="#7F7F7F" d="M12.8,11.2h-1.6v-11h1.6V11.2z"/>
<path fill="#7F7F7F" d="M29.1,9.8c-0.7,0.8-1.9,1.6-4,1.6c-3.2,0-5.7-2.3-5.7-5.7S21.9,0,25.1,0c2.1,0,3.3,0.9,3.9,1.5l-0.7,1.2
	c-0.4-0.5-1.7-1.3-3.2-1.3c-2.4,0-4.1,1.7-4.1,4.3s1.7,4.3,4.1,4.3c1.5,0,2.6-0.6,3.3-1.3L29.1,9.8z"/>
<path fill="#7F7F7F" d="M-30.9,9.8c-0.7,0.8-1.9,1.6-4,1.6c-3.2,0-5.7-2.3-5.7-5.7S-38.1,0-34.9,0c2.1,0,3.3,0.9,3.9,1.5l-0.7,1.2
	c-0.4-0.5-1.7-1.3-3.2-1.3c-2.4,0-4.1,1.7-4.1,4.3s1.7,4.3,4.1,4.3c1.5,0,2.6-0.6,3.3-1.3L-30.9,9.8z"/>
<path fill="#7F7F7F" d="M43.8,11.2h-1.9l-3.7-5.5l-1.1,1.2v4.4h-1.6v-11h1.6V5l4.5-4.7h1.9l-4.2,4.4L43.8,11.2z"/>
<path fill="#7F7F7F" d="M66.7,11.2H65l-1.1-2.9h-4.7L58,11.2h-1.6l4.5-11.1h1.4L66.7,11.2z M63.4,7l-1.9-5l-1.9,5H63.4z"/>
<path fill="#7F7F7F" d="M90.1,11.2h-1.5l-6.4-8.8c0,0,0,1.5,0,2.9v5.9h-1.5v-11h1.6l6.3,8.7c0,0,0-1.4,0-2.8V0.2h1.5V11.2z"/>
<path fill="#7F7F7F" d="M105.7,6.7c0,1.4-0.1,2.5-0.9,3.4c-0.8,0.9-1.9,1.3-3.3,1.3c-1.5,0-2.6-0.5-3.3-1.3c-0.8-0.9-0.9-2-0.9-3.4
	V0.2h1.6v6.4c0,0.9,0,1.8,0.5,2.5c0.4,0.6,1.2,1,2.1,1c1,0,1.7-0.4,2.1-1c0.5-0.7,0.5-1.6,0.5-2.5V0.2h1.6L105.7,6.7L105.7,6.7z"/>
<path fill="#7F7F7F" d="M124.6,11.2h-1.5l-0.7-8.7l0,0l-3.4,8.8h-1l-3.4-8.8l0,0l-0.7,8.7h-1.5l1-11h1.9l3.2,8.5l0,0l3.2-8.5h1.9
	L124.6,11.2z"/>
<path fill="#7F7F7F" d="M137.7,10.5c-0.7,0.5-1.6,0.7-2.8,0.7h-3.6v-11h3c1,0,1.9,0.1,2.6,0.5c0.7,0.4,1.2,1.1,1.2,2.2
	c0,1.2-0.8,2.1-1.7,2.4l0,0c1.5,0.3,2.4,1.2,2.4,2.7C138.9,9.2,138.4,9.9,137.7,10.5z M135.8,1.7c-0.4-0.2-0.8-0.3-1.5-0.3h-1.4v3.5
	h1.3c0.8,0,1.3-0.1,1.6-0.3c0.4-0.3,0.7-0.7,0.7-1.5C136.6,2.3,136.2,1.9,135.8,1.7z M136.5,6.5c-0.5-0.4-1.2-0.4-1.9-0.4h-1.7V10
	h1.7c0.7,0,1.4,0,1.9-0.4s0.8-0.8,0.8-1.6C137.3,7.3,137,6.9,136.5,6.5z"/>
<path fill="#7F7F7F" d="M152.1,11.2h-6.6v-11h6.5v1.3h-4.9v3.3h4.6v1.3h-4.6v3.8h5V11.2z"/>
<path fill="#7F7F7F" d="M-58.9,11.2h-6.6v-11h6.5v1.3h-4.9v3.3h4.6v1.3h-4.6v3.8h5V11.2z"/>
<path fill="#7F7F7F" d="M166.3,11.2h-1.9l-2.9-4.8h-1.2v4.8h-1.6v-11h3.1c1.1,0,2,0.3,2.7,0.8s1.1,1.3,1.1,2.3c0,1.9-1.3,2.8-2.5,3
	L166.3,11.2z M163.4,1.8c-0.5-0.4-1.1-0.4-1.9-0.4h-1.1v3.7h1.1c0.8,0,1.4,0,1.9-0.4s0.7-0.8,0.7-1.5C164.1,2.6,163.9,2.2,163.4,1.8
	z"/>
<path fill="#7F7F7F" d="M189.4,11.2h-1.7l-1.1-2.9h-4.7l-1.1,2.9H179l4.5-11.1h1.4L189.4,11.2z M186.1,7l-1.9-5l-1.9,5H186.1z"/>
<path fill="#7F7F7F" d="M-44.1,11.2h-1.7l-1.1-2.9h-4.7l-1.1,2.9h-1.8l4.5-11.1h1.4L-44.1,11.2z M-47.3,7l-1.9-5l-1.9,5H-47.3z"/>
<path fill="#7F7F7F" d="M204.8,11.2h-1.5l-6.4-8.8c0,0,0,1.5,0,2.9v5.9h-1.5v-11h1.6l6.3,8.7c0,0,0-1.4,0-2.8V0.2h1.5L204.8,11.2
	L204.8,11.2z"/>
<path fill="#7F7F7F" d="M219.5,9.8c-0.8,0.7-2.2,1.4-4.1,1.4h-3.3v-11h3.3c1.9,0,3.3,0.7,4.1,1.4s1.7,2,1.7,4.1S220.3,9,219.5,9.8z
	 M218.4,2.5c-0.6-0.6-1.6-1-2.9-1h-1.8v8.4h1.8c1.3,0,2.3-0.4,2.9-1s1.3-1.6,1.3-3.2S219,3.1,218.4,2.5z"/>
<path fill="#7F7F7F" d="M241.4,10.5c-0.7,0.6-1.6,0.9-2.7,0.9c-1.9,0-3-1.2-3.6-1.9l0.9-1c0.6,0.8,1.6,1.6,2.8,1.6s2.2-0.7,2.2-1.9
	s-1.2-1.6-1.8-1.8c-0.6-0.2-1.3-0.5-1.8-0.7c-0.2-0.1-0.7-0.4-1.1-0.8c-0.4-0.4-0.7-1-0.7-1.9s0.4-1.6,1-2.1s1.5-0.8,2.5-0.8
	c1.8,0,2.9,1.1,3.2,1.4l-0.8,1.1c-0.5-0.6-1.3-1.2-2.4-1.2c-1.1,0-1.9,0.5-1.9,1.5s0.8,1.4,1.4,1.7l2,0.8c0.2,0.1,0.9,0.5,1.2,0.9
	c0.4,0.4,0.7,1,0.7,1.9C242.6,9.1,242.2,9.9,241.4,10.5z"/>
<path fill="#7F7F7F" d="M258.2,11.2h-1.6V6.1h-5.9v5.2h-1.6v-11h1.6v4.6h5.9V0.2h1.6V11.2z"/>
<path fill="#7F7F7F" d="M-15.8,11.2h-1.6V6.1h-5.9v5.2h-1.6v-11h1.6v4.6h5.9V0.2h1.6V11.2z"/>
<path fill="#7F7F7F" d="M274.6,11.2h-1.7l-1.1-2.9H267l-1.1,2.9h-1.6l4.5-11.1h1.4L274.6,11.2z M271.3,7l-1.9-5l-1.9,5H271.3z"/>
<path fill="#7F7F7F" d="M288.8,11.2H287l-3.7-5.5l-1.1,1.2v4.4h-1.6v-11h1.6V5l4.5-4.7h1.9l-4.2,4.4L288.8,11.2z"/>
<path fill="#7F7F7F" d="M301.3,11.2h-6.6v-11h6.5v1.3h-4.9v3.3h4.6v1.3h-4.6v3.8h5V11.2z"/>
<path fill="#7F7F7F" d="M317.5,11.2h-1.6v-11h1.6V11.2z"/>
<path fill="#7F7F7F" d="M331.4,1.5h-3.1v9.7h-1.6V1.5h-3.1V0.2h7.8L331.4,1.5L331.4,1.5z"/>
<path fill="#7F7F7F" d="M338.7,11.4c-0.6,0-1.1-0.4-1.1-1s0.4-1,1.1-1c0.6,0,1.1,0.4,1.1,1C339.8,11,339.4,11.4,338.7,11.4z
	 M339.5,0.2l-0.1,8.1h-1.3L338,0.2H339.5z"/>
</svg>
